<mxfile host="app.diagrams.net" modified="2023-11-16T18:30:57.971Z" agent="Mozilla/5.0 (X11; Linux x86_64; rv:109.0) Gecko/20100101 Firefox/119.0" version="22.1.2" etag="E29foEAb-PUTPs-lacBj" type="github">
  <diagram name="Page-1" id="lTCGwcmSlVEX3Ku2D_jA">
    <mxGraphModel>
      <root>
        <mxCell id="0" />
        <mxCell id="1" parent="0" />
      </root>
    </mxGraphModel>
  </diagram>
</mxfile>
